<svg id="_x33_0" enable-background="new 0 0 64 64" height="512" viewBox="0 0 64 64" width="512" xmlns="http://www.w3.org/2000/svg" xmlns:xlink="http://www.w3.org/1999/xlink"><linearGradient id="SVGID_1_" gradientUnits="userSpaceOnUse" x1="32" x2="32" y1="63" y2="1"><stop offset="0" stop-color="#9f2fff"/><stop offset="1" stop-color="#0bb1d3"/></linearGradient><path d="m1.086 52.599.349 2.093c.44 2.644 2.378 4.83 4.938 5.569 4.327 1.249 11.938 2.739 23.627 2.739s19.3-1.49 23.626-2.739c2.56-.739 4.499-2.925 4.938-5.569l.349-2.092-.005-.001c.055-.195.092-.394.092-.599 0-2.372-3.594-3.937-7.847-4.96 2.18-.747 4.214-1.907 5.967-3.465 3.736-3.323 5.88-8.096 5.88-13.096v-.529c0-4.383-3.566-7.95-7.95-7.95-1.518 0-2.887.342-4.052.987-.007-1.097-.9-1.987-1.998-1.987h-38c-1.103 0-2 .897-2 2v11c0 1.917.271 3.809.78 5.638-.093.127-.182.258-.26.397-2.38-.322-4.52 1.587-4.52 3.965 0 1.457.8 2.783 2.028 3.48-.002.019-.001.037-.003.056-4.034 1.195-6.025 2.656-6.025 4.464 0 .205.037.403.091.598zm9.364.13c.491.162 1.006.271 1.55.271 1.097 0 2.151-.372 3.01-1.019.912 1.218 2.354 2.019 3.99 2.019.173 0 .346-.009.52-.028.697 1.227 2.023 2.028 3.48 2.028 1.203 0 2.271-.545 3.005-1.388 1.311.252 2.651.388 3.995.388 4.254 0 8.212-1.28 11.523-3.463 5.379.526 9.791 1.4 12.574 2.471-4.003 1.503-12.109 2.992-24.097 2.992-11.984 0-20.089-1.488-24.093-2.991 1.212-.464 2.746-.896 4.543-1.28zm2.55-14.729c-.53 0-1.039.108-1.508.3-.325-1.404-.492-2.844-.492-4.3v-5h38v5c0 10.477-8.523 19-19 19-1.032 0-2.063-.085-3.076-.25.047-.243.076-.493.076-.75 0-.173-.012-.347-.036-.521 1.234-.693 2.036-2.014 2.036-3.479 0-2.379-2.142-4.29-4.52-3.965-.694-1.233-2.014-2.035-3.48-2.035-1.189 0-2.272.517-3.01 1.369-.295-.333-.635-.627-1.025-.847.023-.174.035-.349.035-.522 0-2.206-1.794-4-4-4zm38-7.571c1.01-.939 2.93-2.429 4.05-2.429 1.075 0 1.95.875 1.95 1.95v.529c0 3.288-1.409 6.426-3.866 8.611-1.011.899-2.178 1.591-3.424 2.087.82-2.243 1.29-4.653 1.29-7.177zm-26.145 20.842c.095.23.145.482.145.729 0 1.103-.897 2-2 2-.886 0-1.675-.591-1.919-1.437l-.274-.952-.955.265c-.299.083-.578.124-.852.124-1.654 0-3-1.346-3-3 0-.353.064-.695.18-1.015.41 1.169 1.513 2.015 2.82 2.015 1.654 0 3-1.346 3-3 0-1.255-.775-2.328-1.871-2.776.268-.131.556-.224.871-.224.901 0 1.692.607 1.924 1.477l.292 1.101 1.054-.433c.23-.095.483-.145.73-.145 1.103 0 2 .897 2 2 0 .901-.607 1.692-1.477 1.924l-1.103.293zm-5.855-5.271c.551 0 1 .449 1 1s-.449 1-1 1-1-.449-1-1 .449-1 1-1zm-5 3c-.551 0-1-.449-1-1s.449-1 1-1c.14 0 .275.035.4.09-.25.595-.4 1.238-.4 1.91zm39.072 9.339c-4.203 1.214-11.617 2.661-23.072 2.661s-18.869-1.447-23.072-2.661c-1.58-.456-2.826-1.69-3.336-3.239 5.268 2.808 17.496 3.9 26.408 3.9 8.913 0 21.14-1.092 26.408-3.9-.51 1.549-1.756 2.783-3.336 3.239zm3.928-6.339c0 .254-.22.542-.609.844-2.527-1.325-6.909-2.392-12.573-3.071.623-.547 1.21-1.13 1.765-1.746 9.302 1.356 11.417 3.369 11.417 3.973zm4-22.05v.529c0 4.43-1.899 8.658-5.209 11.601-2.386 2.122-5.352 3.43-8.492 3.801.495-.719.939-1.473 1.343-2.253 2.151-.523 4.157-1.565 5.82-3.043 2.884-2.564 4.538-6.248 4.538-10.106v-.529c0-2.178-1.772-3.95-3.95-3.95-1.348 0-2.895.936-4.05 1.814v-2.37c1.027-.949 2.381-1.444 4.05-1.444 3.281 0 5.95 2.669 5.95 5.95zm-12-6.95v4h-38v-4zm-42 21c0-1.103.897-2 2-2 .247 0 .5.05.73.145l1.054.433.292-1.101c.232-.87 1.023-1.477 1.924-1.477 1.103 0 2 .897 2 2 0 .247-.05.499-.145.729l-.435 1.055 1.103.293c.383.102.713.325.969.614-.355.209-.685.454-.976.74-.456-.27-.973-.431-1.516-.431-1.654 0-3 1.346-3 3 0 1.297.832 2.393 1.986 2.811-.316.111-.644.189-.986.189-1.654 0-3-1.346-3-3 0-.274.041-.553.124-.852l.266-.955-.952-.274c-.847-.244-1.438-1.033-1.438-1.919zm.269 5.543c.202.617.516 1.176.925 1.661-1.898.49-3.433 1.039-4.582 1.642-.392-.304-.612-.592-.612-.846 0-.417.928-1.422 4.269-2.457zm23.731-36.39c0-.857-.546-1.615-1.359-1.886l-2.06-.687c-1.543-.513-2.581-1.952-2.581-3.58 0-2.206 1.794-4 4-4s4 1.794 4 4h-2c0-1.103-.897-2-2-2s-2 .897-2 2c0 .765.488 1.442 1.213 1.684l2.06.687c1.631.543 2.727 2.063 2.727 3.782 0 1.521-.845 2.887-2.204 3.567l-.56.28c-.762.381-1.236 1.147-1.236 2h-2c0-1.615.897-3.067 2.342-3.789l.56-.28c.677-.338 1.098-1.02 1.098-1.778zm4-7.861v-.292c0-1.103-.897-2-2-2v-2c2.206 0 4 1.794 4 4v.292c0 .618-.146 1.236-.423 1.789l-1.683 3.366-1.789-.895 1.683-3.367c.139-.275.212-.584.212-.893zm0 13.708h-2v-.169c0-3.946 2.102-7.658 5.485-9.688l1.029 1.715c-2.784 1.67-4.514 4.725-4.514 7.973zm3.98.196-1.961-.393.337-1.686c.479-2.398 2.107-4.405 4.356-5.368l1.136-.487c1.308-.559 2.152-1.84 2.152-3.262 0-.551-.449-1-1-1s-1 .449-1 1v1h-2v-1c0-1.654 1.346-3 3-3s3 1.346 3 3c0 2.223-1.32 4.225-3.363 5.101l-1.137.487c-1.643.704-2.833 2.17-3.183 3.922zm-17.98-6.196v-1.046c0-.526-.428-.954-.954-.954-.618 0-1.046.428-1.046.954 0 .32.159.617.425.794l3.466 2.311c1.32.88 2.109 2.353 2.109 3.941h-2c0-.917-.456-1.769-1.219-2.277l-3.466-2.311c-.823-.549-1.315-1.468-1.315-2.458 0-1.629 1.325-2.954 2.954-2.954 1.721 0 3.046 1.325 3.046 2.954v1.046zm4.051-9.832c-1.284.856-2.051 2.289-2.051 3.832h-2c0-2.214 1.1-4.269 2.941-5.496l.504-.336 1.109 1.664z" fill="url(#SVGID_1_)"/></svg>