<?xml version="1.0" encoding="utf-8"?>
<!-- Generator: Adobe Adobe Illustrator 24.2.0, SVG Export Plug-In . SVG Version: 6.00 Build 0)  -->
<svg version="1.1" id="Layer_1" xmlns="http://www.w3.org/2000/svg" xmlns:xlink="http://www.w3.org/1999/xlink" x="0px" y="0px"
	 width="1280px" height="1276.93px" viewBox="0 0 1280 1276.93" style="enable-background:new 0 0 1280 1276.93;"
	 xml:space="preserve">
<style type="text/css">
	.st0{fill:#1E8FFF;}
	.st1{fill:#204B5E;}
	.st2{fill:none;stroke:#D32746;stroke-width:0.5;stroke-miterlimit:10;}
	.st3{fill:#FFD500;}
	.st4{fill:#CCD4D9;}
	.st5{fill:#264B5E;}
	.st6{fill:#1B4B5D;}
	.st7{fill:#FFFFFF;}
	.st8{fill:#2B4C5E;}
	.st9{fill:#1D4B5E;}
	.st10{fill:#184B5D;}
	.st11{fill:#CBD5D7;}
	.st12{fill:#78C7DA;}
	.st13{fill:#42B2CC;}
	.st14{fill:#FFFFFF;stroke:#FFFFFF;stroke-width:16;stroke-miterlimit:10;}
	.st15{fill:#1E8FFF;stroke:#FFFFFF;stroke-width:17;stroke-miterlimit:10;}
</style>
<g>
	<g>
		<path class="st0" d="M640.07,136.43c-278.25,0-503.83,224.89-503.83,502.04c0,159.14,74.14,300.81,190.09,392.69
			c2.75,2.34,5.64,4.54,8.53,6.74c84.73,64.37,190.5,102.61,305.21,102.61c114.71,0,220.48-38.24,305.21-102.61
			c2.89-2.2,5.78-4.4,8.53-6.74c115.81-91.88,189.95-233.69,189.95-392.69C1143.76,361.31,918.18,136.43,640.07,136.43z"/>
		<path class="st1" d="M410.15,331.6c-0.05,1.43,63.27,13.41,63.27,13.41v-26.82C473.42,318.19,410.19,330.6,410.15,331.6z"/>
		<g>
			<path class="st3" d="M953.81,1031.16c-2.75,2.34-5.64,4.54-8.53,6.74c-84.73,64.37-190.5,102.61-305.21,102.61
				c-114.71,0-220.48-38.24-305.21-102.61c-2.89-2.2-5.78-4.4-8.53-6.74H953.81z"/>
			<path class="st4" d="M805.4,316.25v33.97c0,13.75-11.14,24.9-24.9,24.9h-6.47v-83.9h6.47
				C794.26,291.22,805.4,302.49,805.4,316.25z"/>
			<ellipse class="st5" cx="858.58" cy="331.2" rx="15.82" ry="15.13"/>
			<path class="st6" d="M705.68,729.3v49.65c-2.2-2.43-4.54-3.65-7.29-3.65c-1.79,0-3.44,0.61-5.09,1.83V729.3H705.68z"/>
			<path class="st5" d="M705.68,899.89v58.56H693.3v-58.56c1.65-1.12,3.3-1.49,5.09-1.86C700.86,897.65,703.34,898.39,705.68,899.89
				z"/>
			<path class="st7" d="M740.82,996.27c0,6.19-1.38,11.97-3.71,17.19h-75.1c-2.34-5.23-3.71-11-3.71-17.19
				c0-23.11,18.43-41.95,41.26-41.95C722.25,954.32,740.82,973.16,740.82,996.27z"/>
			<path class="st1" d="M690.81,510.25c1.79-0.41,3.58-0.81,5.37-1.22c-35.77,0.32-71.54,0.65-107.32,0.97
				c10.87-4.22,16.48-16.6,19.69-28.58c3.95-14.72,4.66-33.48,4.66-54.62c16.96-0.01,33.68-0.05,50.64-0.06l0.14,1.53
				c0,13.65,0.36,33.12,4.57,48.13c3.35,11.94,10.2,24.35,21.79,28.73"/>
			<path class="st7" d="M636.38,235.24h-86.72c-25.86,0-46.9,20.91-46.9,46.9v102.2c0,25.86,21.04,46.9,46.9,46.9h86.72h4.04h86.72
				c25.86,0,46.9-21.04,46.9-46.9v-102.2c0-26-21.04-46.9-46.9-46.9h-86.72H636.38z"/>
			<path class="st1" d="M859.96,557.54c-23.27-13.38-59.81-36.64-83.03-49.98c-7.24,18.75-8.02,36.38-10.27,56.35
				c0,0,52.45,22.19,76.29,30.87"/>
			<path class="st8" d="M748.04,1013.09v11.62c0,3.59-2.91,6.5-6.5,6.5h-83.97c-3.59,0-6.5-2.91-6.5-6.5v-11.62
				c0-3.59,2.91-6.5,6.5-6.5h83.97C745.13,1006.59,748.04,1009.5,748.04,1013.09z"/>
			<path class="st1" d="M413.95,557.54c23.27-13.38,59.81-36.64,83.03-49.98c7.24,18.75,8.02,36.38,10.27,56.35
				c0,0-52.45,22.19-76.29,30.87"/>
			<path class="st9" d="M844.32,678.11c-0.04-0.1,0.6-0.21,0.55-0.31c9.66-23.16,26.58-58.52,36.71-82.21
				c-9.74-0.6-32.89,2.61-32.89,2.61c-9.56,23.14-20.55,49.36-30.2,72.52c0.04,0.1-0.6,0.21-0.55,0.31"/>
			<path class="st9" d="M434.23,681.52c0.04-0.1-0.6-0.21-0.55-0.31c-9.66-23.16-26.58-58.52-36.71-82.21
				c9.74-0.6,32.89,2.61,32.89,2.61c9.56,23.14,20.55,49.36,30.2,72.52c-0.04,0.1,0.6,0.21,0.55,0.31"/>
			<path class="st7" d="M783.13,710.31c7.69-30.16,29.54-45.05,51.08-38.88c21.54,6.17,32.88,35.67,23.5,65.34
				c-4.87,15.41-17.14,29.69-17.14,29.69s15.84-63.04-14.85-69.14c-29.32-5.83-43.29,40.76-43.29,40.76S778.46,728.65,783.13,710.31
				z"/>
			<path class="st7" d="M498.42,710.31c-7.69-30.16-29.54-45.05-51.08-38.88c-21.54,6.17-32.88,35.67-23.5,65.34
				c4.87,15.41,17.14,29.69,17.14,29.69s-15.84-63.04,14.85-69.14c29.32-5.83,43.29,40.76,43.29,40.76S503.09,728.65,498.42,710.31z
				"/>
			<path class="st7" d="M705.71,914.99c-2.34-0.56-4.81-0.85-7.29-0.7c-1.79,0.14-3.44,0.28-5.09,0.7
				c-24.07,3.94-39.48,21.27-26.55-57.76c6.19-37.19,14.31-72.83,26.55-80.72c1.65-1.13,3.3-1.69,5.09-1.69
				c2.75,0,5.09,1.13,7.29,3.38c10.32,9.86,16.09,40.99,23.66,75.51C748.9,941.05,727.44,919.08,705.71,914.99z"/>
			<ellipse class="st9" cx="418.21" cy="331.2" rx="15.82" ry="15.13"/>
			<path class="st10" d="M571.11,729.3v60.52c2.2-3.26,4.54-4.89,7.29-4.89c1.79,0,3.44,0.81,5.09,2.45V729.3H571.11z"/>
			<ellipse class="st7" cx="862.71" cy="581.67" rx="24.07" ry="24.13"/>
			<path class="st5" d="M571.11,905.87v52.57h12.38v-52.57c-1.65-1.01-3.3-1.34-5.09-1.67
				C575.93,903.87,573.45,904.53,571.11,905.87z"/>
			<path class="st7" d="M537.83,996.27c0,6.19,1.38,11.97,3.71,17.19h75.1c2.34-5.23,3.71-11,3.71-17.19
				c0-23.11-18.43-41.95-41.26-41.95C556.4,954.32,537.83,973.16,537.83,996.27z"/>
			<path class="st7" d="M571.11,914.99c2.34-0.56,4.81-0.85,7.29-0.7c1.79,0.14,3.44,0.28,5.09,0.7
				c24.07,3.94,39.48,21.27,26.55-57.76c-6.19-37.19-14.31-72.83-26.55-80.72c-1.65-1.13-3.3-1.69-5.09-1.69
				c-2.75,0-5.09,1.13-7.29,3.38c-10.32,9.86-16.09,40.99-23.66,75.51C527.93,941.05,549.38,919.08,571.11,914.99z"/>
			<path class="st8" d="M627.58,1013.09v11.62c0,3.59-2.91,6.5-6.5,6.5h-83.97c-3.59,0-6.5-2.91-6.5-6.5v-11.62
				c0-3.59,2.91-6.5,6.5-6.5h83.97C624.67,1006.59,627.58,1009.5,627.58,1013.09z"/>
			<path class="st7" d="M484.74,535.64c0,21.28,15.4,38.51,34.39,38.51v179.97h117.7h3.15h117.7V574.15
				c18.98,0,34.39-17.23,34.39-38.51c0-3.15-0.27-6.29-0.96-9.14c-3.71-16.93-17.19-29.52-33.42-29.52
				c-2.21,0-62.13,0.69-117.25,1.33h-4.05c-55.12-0.64-115.04-1.33-117.25-1.33c-16.23,0-29.71,12.59-33.42,29.52
				C485.01,529.35,484.74,532.5,484.74,535.64z"/>
			<ellipse class="st7" cx="414.09" cy="581.67" rx="24.07" ry="24.13"/>
			<path class="st11" d="M471.4,316.25v33.97c0,13.75,11.14,24.9,24.9,24.9h6.47v-83.9h-6.47
				C482.54,291.22,471.4,302.49,471.4,316.25z"/>
		</g>
		<path class="st1" d="M868.67,331.95c0.05-1.43-63.27-13.41-63.27-13.41v26.82C805.4,345.37,868.64,332.95,868.67,331.95z"/>
		<g>
			<circle class="st12" cx="573.27" cy="345.01" r="27.85"/>
			<ellipse class="st13" cx="574.31" cy="344.32" rx="14.79" ry="14.44"/>
			
				<ellipse transform="matrix(0.7643 -0.6449 0.6449 0.7643 -85.9397 441.4798)" class="st7" cx="560.91" cy="338.29" rx="6.88" ry="3.46"/>
		</g>
		<g>
			<circle class="st12" cx="697.75" cy="345.01" r="27.85"/>
			<ellipse class="st13" cx="698.78" cy="344.32" rx="14.79" ry="14.44"/>
			
				<ellipse transform="matrix(0.7071 -0.7071 0.7071 0.7071 -38.2476 582.4859)" class="st7" cx="684" cy="337.41" rx="6.88" ry="3.55"/>
		</g>
	</g>
	<g>
		<path class="st0" d="M640.07,136.43c-278.25,0-503.83,224.89-503.83,502.04c0,159.14,74.14,300.81,190.09,392.69
			c2.75,2.34,5.64,4.54,8.53,6.74c84.73,64.37,190.5,102.61,305.21,102.61c114.71,0,220.48-38.24,305.21-102.61
			c2.89-2.2,5.78-4.4,8.53-6.74c115.81-91.88,189.95-233.69,189.95-392.69C1143.76,361.31,918.18,136.43,640.07,136.43z"/>
		<path class="st1" d="M410.15,331.6c-0.05,1.43,63.27,13.41,63.27,13.41v-26.82C473.42,318.19,410.19,330.6,410.15,331.6z"/>
		<g>
			<path class="st3" d="M953.81,1031.16c-2.75,2.34-5.64,4.54-8.53,6.74c-84.73,64.37-190.5,102.61-305.21,102.61
				c-114.71,0-220.48-38.24-305.21-102.61c-2.89-2.2-5.78-4.4-8.53-6.74H953.81z"/>
			<path class="st4" d="M805.4,316.25v33.97c0,13.75-11.14,24.9-24.9,24.9h-6.47v-83.9h6.47
				C794.26,291.22,805.4,302.49,805.4,316.25z"/>
			<ellipse class="st5" cx="858.58" cy="331.2" rx="15.82" ry="15.13"/>
			<path class="st6" d="M705.68,729.3v49.65c-2.2-2.43-4.54-3.65-7.29-3.65c-1.79,0-3.44,0.61-5.09,1.83V729.3H705.68z"/>
			<path class="st5" d="M705.68,899.89v58.56H693.3v-58.56c1.65-1.12,3.3-1.49,5.09-1.86C700.86,897.65,703.34,898.39,705.68,899.89
				z"/>
			<path class="st7" d="M740.82,996.27c0,6.19-1.38,11.97-3.71,17.19h-75.1c-2.34-5.23-3.71-11-3.71-17.19
				c0-23.11,18.43-41.95,41.26-41.95C722.25,954.32,740.82,973.16,740.82,996.27z"/>
			<path class="st1" d="M690.81,510.25c1.79-0.41,3.58-0.81,5.37-1.22c-35.77,0.32-71.54,0.65-107.32,0.97
				c10.87-4.22,16.48-16.6,19.69-28.58c3.95-14.72,4.66-33.48,4.66-54.62c16.96-0.01,33.68-0.05,50.64-0.06l0.14,1.53
				c0,13.65,0.36,33.12,4.57,48.13c3.35,11.94,10.2,24.35,21.79,28.73"/>
			<path class="st7" d="M636.38,235.24h-86.72c-25.86,0-46.9,20.91-46.9,46.9v102.2c0,25.86,21.04,46.9,46.9,46.9h86.72h4.04h86.72
				c25.86,0,46.9-21.04,46.9-46.9v-102.2c0-26-21.04-46.9-46.9-46.9h-86.72H636.38z"/>
			<path class="st1" d="M859.96,557.54c-23.27-13.38-59.81-36.64-83.03-49.98c-7.24,18.75-8.02,36.38-10.27,56.35
				c0,0,52.45,22.19,76.29,30.87"/>
			<path class="st8" d="M748.04,1013.09v11.62c0,3.59-2.91,6.5-6.5,6.5h-83.97c-3.59,0-6.5-2.91-6.5-6.5v-11.62
				c0-3.59,2.91-6.5,6.5-6.5h83.97C745.13,1006.59,748.04,1009.5,748.04,1013.09z"/>
			<path class="st1" d="M413.95,557.54c23.27-13.38,59.81-36.64,83.03-49.98c7.24,18.75,8.02,36.38,10.27,56.35
				c0,0-52.45,22.19-76.29,30.87"/>
			<path class="st9" d="M844.32,678.11c-0.04-0.1,0.6-0.21,0.55-0.31c9.66-23.16,26.58-58.52,36.71-82.21
				c-9.74-0.6-32.89,2.61-32.89,2.61c-9.56,23.14-20.55,49.36-30.2,72.52c0.04,0.1-0.6,0.21-0.55,0.31"/>
			<path class="st9" d="M434.23,681.52c0.04-0.1-0.6-0.21-0.55-0.31c-9.66-23.16-26.58-58.52-36.71-82.21
				c9.74-0.6,32.89,2.61,32.89,2.61c9.56,23.14,20.55,49.36,30.2,72.52c-0.04,0.1,0.6,0.21,0.55,0.31"/>
			<path class="st7" d="M783.13,710.31c7.69-30.16,29.54-45.05,51.08-38.88c21.54,6.17,32.88,35.67,23.5,65.34
				c-4.87,15.41-17.14,29.69-17.14,29.69s15.84-63.04-14.85-69.14c-29.32-5.83-43.29,40.76-43.29,40.76S778.46,728.65,783.13,710.31
				z"/>
			<path class="st7" d="M498.42,710.31c-7.69-30.16-29.54-45.05-51.08-38.88c-21.54,6.17-32.88,35.67-23.5,65.34
				c4.87,15.41,17.14,29.69,17.14,29.69s-15.84-63.04,14.85-69.14c29.32-5.83,43.29,40.76,43.29,40.76S503.09,728.65,498.42,710.31z
				"/>
			<path class="st7" d="M705.71,914.99c-2.34-0.56-4.81-0.85-7.29-0.7c-1.79,0.14-3.44,0.28-5.09,0.7
				c-24.07,3.94-39.48,21.27-26.55-57.76c6.19-37.19,14.31-72.83,26.55-80.72c1.65-1.13,3.3-1.69,5.09-1.69
				c2.75,0,5.09,1.13,7.29,3.38c10.32,9.86,16.09,40.99,23.66,75.51C748.9,941.05,727.44,919.08,705.71,914.99z"/>
			<ellipse class="st9" cx="418.21" cy="331.2" rx="15.82" ry="15.13"/>
			<path class="st10" d="M571.11,729.3v60.52c2.2-3.26,4.54-4.89,7.29-4.89c1.79,0,3.44,0.81,5.09,2.45V729.3H571.11z"/>
			<ellipse class="st7" cx="862.71" cy="581.67" rx="24.07" ry="24.13"/>
			<path class="st5" d="M571.11,905.87v52.57h12.38v-52.57c-1.65-1.01-3.3-1.34-5.09-1.67
				C575.93,903.87,573.45,904.53,571.11,905.87z"/>
			<path class="st7" d="M537.83,996.27c0,6.19,1.38,11.97,3.71,17.19h75.1c2.34-5.23,3.71-11,3.71-17.19
				c0-23.11-18.43-41.95-41.26-41.95C556.4,954.32,537.83,973.16,537.83,996.27z"/>
			<path class="st7" d="M571.11,914.99c2.34-0.56,4.81-0.85,7.29-0.7c1.79,0.14,3.44,0.28,5.09,0.7
				c24.07,3.94,39.48,21.27,26.55-57.76c-6.19-37.19-14.31-72.83-26.55-80.72c-1.65-1.13-3.3-1.69-5.09-1.69
				c-2.75,0-5.09,1.13-7.29,3.38c-10.32,9.86-16.09,40.99-23.66,75.51C527.93,941.05,549.38,919.08,571.11,914.99z"/>
			<path class="st8" d="M627.58,1013.09v11.62c0,3.59-2.91,6.5-6.5,6.5h-83.97c-3.59,0-6.5-2.91-6.5-6.5v-11.62
				c0-3.59,2.91-6.5,6.5-6.5h83.97C624.67,1006.59,627.58,1009.5,627.58,1013.09z"/>
			<path class="st7" d="M484.74,535.64c0,21.28,15.4,38.51,34.39,38.51v179.97h117.7h3.15h117.7V574.15
				c18.98,0,34.39-17.23,34.39-38.51c0-3.15-0.27-6.29-0.96-9.14c-3.71-16.93-17.19-29.52-33.42-29.52
				c-2.21,0-62.13,0.69-117.25,1.33h-4.05c-55.12-0.64-115.04-1.33-117.25-1.33c-16.23,0-29.71,12.59-33.42,29.52
				C485.01,529.35,484.74,532.5,484.74,535.64z"/>
			<ellipse class="st7" cx="414.09" cy="581.67" rx="24.07" ry="24.13"/>
			<path class="st11" d="M471.4,316.25v33.97c0,13.75,11.14,24.9,24.9,24.9h6.47v-83.9h-6.47
				C482.54,291.22,471.4,302.49,471.4,316.25z"/>
		</g>
		<path class="st1" d="M868.67,331.95c0.05-1.43-63.27-13.41-63.27-13.41v26.82C805.4,345.37,868.64,332.95,868.67,331.95z"/>
		<g>
			<circle class="st12" cx="573.27" cy="345.01" r="27.85"/>
			<ellipse class="st13" cx="574.31" cy="344.32" rx="14.79" ry="14.44"/>
			
				<ellipse transform="matrix(0.7643 -0.6449 0.6449 0.7643 -85.9397 441.4798)" class="st7" cx="560.91" cy="338.29" rx="6.88" ry="3.46"/>
		</g>
		<g>
			<circle class="st12" cx="697.75" cy="345.01" r="27.85"/>
			<ellipse class="st13" cx="698.78" cy="344.32" rx="14.79" ry="14.44"/>
			
				<ellipse transform="matrix(0.7071 -0.7071 0.7071 0.7071 -38.2476 582.4859)" class="st7" cx="684" cy="337.41" rx="6.88" ry="3.55"/>
		</g>
	</g>
</g>
<path class="st14" d="M640,1147.21c-136.35,0-264.54-52.92-360.95-149c-96.42-96.09-149.52-223.85-149.52-359.75
	s53.1-263.66,149.52-359.75c96.41-96.09,224.6-149,360.95-149s264.54,52.92,360.95,149c96.42,96.09,149.52,223.85,149.52,359.75
	s-53.1,263.66-149.52,359.75C904.54,1094.3,776.35,1147.21,640,1147.21z M640,143.15c-132.77,0-257.59,51.53-351.47,145.08
	c-93.87,93.55-145.57,217.93-145.57,350.24c0,132.3,51.7,256.68,145.57,350.24c93.88,93.56,218.7,145.08,351.47,145.08
	s257.59-51.53,351.47-145.08c93.87-93.55,145.57-217.94,145.57-350.24c0-132.3-51.7-256.68-145.57-350.24
	C897.59,194.67,772.77,143.15,640,143.15z"/>
</svg>
